<?xml version="1.0" standalone="no"?>
<!DOCTYPE svg PUBLIC "-//W3C//DTD SVG 20010904//EN"
 "http://www.w3.org/TR/2001/REC-SVG-20010904/DTD/svg10.dtd">
<svg version="1.0" xmlns="http://www.w3.org/2000/svg"
 width="512.000000pt" height="512.000000pt" viewBox="0 0 512.000000 512.000000"
 preserveAspectRatio="xMidYMid meet">

<g transform="translate(0.000000,512.000000) scale(0.100000,-0.100000)"
fill="#4285F4" stroke="none">
<path d="M3669 5105 c-55 -18 -142 -92 -169 -144 -19 -39 -40 -134 -40 -187 0
-23 8 -38 26 -53 62 -48 117 -11 128 86 8 72 37 121 86 146 32 16 68 17 402
15 354 -3 368 -4 395 -24 83 -61 71 -204 -21 -248 -29 -13 -76 -16 -295 -16
-245 0 -262 -1 -280 -19 -23 -23 -21 -9 -71 -366 -39 -274 -40 -280 -22 -305
15 -19 79 -46 298 -122 153 -54 294 -99 312 -100 18 -1 39 5 48 14 9 8 68 118
132 243 130 253 144 270 221 270 88 0 159 -74 148 -154 -5 -36 -305 -630 -336
-665 -24 -27 -66 -46 -104 -46 -19 0 -106 25 -193 56 -351 123 -505 174 -526
174 -11 0 -77 -34 -146 -76 -161 -98 -200 -115 -267 -115 -144 0 -275 134
-275 283 0 119 44 173 235 288 72 43 138 87 148 98 12 13 23 58 34 142 l17
122 -27 24 c-59 51 -119 16 -131 -76 -15 -119 -14 -117 -76 -155 l-58 -35
-1173 0 -1174 0 -90 45 c-111 56 -186 75 -288 75 -146 0 -279 -52 -372 -146
-213 -215 -218 -561 -10 -769 40 -40 266 -203 667 -480 334 -231 608 -422 608
-425 0 -3 -51 -22 -113 -44 -256 -88 -400 -156 -409 -193 -8 -31 6 -65 35 -87
23 -17 32 -18 55 -9 15 6 369 143 787 303 516 199 781 296 827 303 244 38 482
-141 521 -394 27 -173 -60 -361 -211 -458 -71 -45 -1532 -601 -1615 -614 -194
-31 -402 84 -490 270 -30 64 -32 75 -32 178 0 61 4 133 9 161 8 48 7 52 -19
72 -85 67 -145 -25 -145 -223 0 -109 18 -184 67 -285 49 -100 151 -201 257
-256 l76 -39 0 -172 0 -173 -84 0 c-65 0 -88 -4 -105 -17 -15 -14 -41 -94
-104 -323 l-84 -305 -131 -5 c-105 -4 -135 -8 -152 -22 -28 -24 -27 -81 2
-108 22 -20 27 -20 1315 -20 l1294 0 24 25 c14 13 25 36 25 50 0 14 -11 37
-25 50 -23 24 -29 25 -154 25 l-130 0 -11 38 c-5 20 -42 156 -82 300 -40 148
-80 274 -91 288 -17 22 -25 24 -108 24 l-89 0 0 343 0 344 273 103 c149 57
299 117 332 133 120 59 223 162 280 282 170 355 -25 767 -410 865 -81 21 -93
28 -560 354 l-130 91 685 5 685 5 63 28 c34 15 106 54 160 87 53 33 102 60
107 60 6 0 154 -49 328 -110 344 -119 377 -126 473 -93 34 11 66 34 104 73 48
48 76 97 220 382 l165 327 0 78 c-1 64 -5 87 -27 128 -31 60 -77 104 -138 136
-67 35 -175 34 -250 -3 -31 -15 -68 -40 -83 -56 -15 -16 -75 -118 -132 -228
-64 -124 -109 -198 -117 -196 -7 2 -104 35 -216 74 -186 65 -203 73 -199 92 3
12 18 112 33 223 l28 202 236 3 235 3 60 30 c105 53 163 162 153 290 -9 110
-66 196 -158 239 -43 20 -62 21 -435 23 -317 2 -399 -1 -436 -12z m-2980 -994
c41 -15 1792 -1218 1806 -1241 3 -5 -5 -12 -17 -15 -13 -4 -210 -79 -439 -166
-229 -88 -421 -159 -428 -159 -22 0 -1315 900 -1355 943 -21 23 -53 71 -70
107 -28 59 -31 74 -31 161 0 90 2 99 38 171 56 115 155 192 279 218 58 12 159
3 217 -19z m2346 -138 c-84 -124 -84 -342 0 -465 l26 -38 -581 0 -581 0 -377
261 c-207 144 -381 265 -386 270 -6 5 386 9 957 9 l968 0 -26 -37z m-845
-2858 l0 -315 -505 0 -505 0 0 154 0 153 93 6 c50 3 112 13 137 21 38 12 531
199 715 271 33 13 61 24 63 24 1 1 2 -141 2 -314z m251 -507 c6 -24 35 -132
65 -241 30 -108 54 -202 54 -207 0 -7 -311 -10 -876 -10 -830 0 -876 1 -872
17 3 10 34 123 69 251 l64 232 742 0 742 0 12 -42z"/>
<path d="M478 4007 c-213 -60 -284 -321 -130 -480 62 -64 104 -82 202 -82 70
0 93 4 132 24 57 29 98 71 130 131 32 63 33 196 1 255 -64 120 -211 186 -335
152z m150 -163 c59 -38 79 -130 42 -191 -69 -114 -253 -63 -253 71 0 111 120
179 211 120z"/>
<path d="M3332 3787 c-31 -33 -29 -80 4 -106 53 -42 114 -13 114 54 0 68 -73
100 -118 52z"/>
<path d="M2559 2616 c-185 -50 -301 -244 -255 -426 29 -111 87 -184 190 -238
45 -24 62 -27 151 -27 87 0 107 3 155 26 70 33 136 99 169 169 23 48 26 68 26
155 0 95 -2 103 -34 163 -53 98 -133 158 -239 181 -66 14 -104 13 -163 -3z
m200 -173 c65 -41 94 -99 89 -184 -3 -53 -9 -73 -31 -102 -50 -66 -83 -82
-168 -82 -66 0 -81 3 -116 28 -138 95 -108 307 52 366 46 17 123 5 174 -26z"/>
</g>
</svg>
