<?xml version="1.0" standalone="no"?>
<!DOCTYPE svg PUBLIC "-//W3C//DTD SVG 20010904//EN"
 "http://www.w3.org/TR/2001/REC-SVG-20010904/DTD/svg10.dtd">
<svg version="1.0" xmlns="http://www.w3.org/2000/svg"
 width="512.000000pt" height="512.000000pt" viewBox="0 0 512.000000 512.000000"
 preserveAspectRatio="xMidYMid meet">

<g transform="translate(0.000000,512.000000) scale(0.100000,-0.100000)"
fill="#4285F4" stroke="none">
<path d="M3755 5000 c-459 -92 -817 -453 -906 -915 -15 -78 -18 -278 -6 -369
7 -58 7 -58 -15 -52 -13 4 -66 19 -118 34 l-95 26 -771 4 c-852 3 -887 1
-1066 -58 -130 -43 -250 -109 -262 -143 -14 -39 3 -78 41 -93 28 -12 36 -11
80 12 90 47 208 92 288 110 74 18 136 19 870 19 784 0 791 0 877 -22 400 -102
684 -411 748 -816 12 -75 9 -275 -6 -338 l-6 -26 -171 -6 c-230 -8 -341 -34
-517 -122 -226 -113 -426 -324 -527 -554 l-32 -76 -593 0 c-590 0 -593 0 -678
23 -353 97 -615 362 -712 720 -31 113 -31 344 -1 462 31 121 74 218 140 317
87 129 86 128 71 160 -7 15 -25 34 -41 43 -24 13 -30 13 -54 0 -81 -45 -207
-277 -260 -477 -22 -85 -26 -119 -27 -258 0 -97 4 -184 12 -220 96 -448 402
-772 842 -893 l95 -26 582 -4 582 -3 -7 -32 c-4 -18 -7 -111 -6 -207 0 -156 3
-186 27 -273 81 -303 292 -569 568 -716 158 -85 343 -131 520 -131 114 0 139
13 139 74 0 58 -34 76 -144 76 -253 0 -481 98 -672 285 -154 152 -237 305
-280 516 -23 113 -15 332 16 439 49 170 137 319 264 445 92 92 197 161 319
210 166 68 184 70 747 70 456 0 513 -2 585 -19 376 -86 665 -375 751 -751 27
-114 25 -340 -4 -447 -80 -298 -274 -531 -546 -658 -151 -71 -218 -83 -509
-89 -257 -6 -259 -6 -278 -30 -26 -32 -24 -73 5 -100 24 -23 25 -23 288 -19
243 4 270 7 359 30 132 36 229 78 335 146 260 169 438 431 506 747 8 36 12
123 12 220 -1 138 -5 173 -26 256 -101 376 -356 664 -707 795 -158 59 -208 66
-528 71 l-292 5 7 46 c9 60 9 305 0 355 -6 34 -5 38 10 32 9 -4 60 -19 112
-33 88 -25 109 -27 285 -26 173 0 199 2 287 26 106 29 259 97 295 130 26 25
30 64 8 95 -26 37 -56 36 -146 -6 -46 -22 -125 -52 -174 -67 -83 -26 -103 -28
-265 -28 -192 -1 -232 6 -384 67 l-81 32 -51 99 c-92 179 -237 347 -377 436
-49 31 -57 41 -71 90 -58 195 -41 440 46 648 64 153 212 335 352 431 72 50
221 117 316 143 74 20 107 23 250 22 193 -1 267 -16 418 -89 118 -57 168 -91
263 -182 364 -348 409 -910 105 -1314 -76 -100 -74 -154 5 -174 37 -9 84 34
156 142 195 293 243 665 129 999 -73 216 -217 413 -405 554 -77 58 -238 140
-331 169 -173 54 -393 66 -565 31z"/>
<path d="M3632 4287 c-22 -23 -22 -29 -22 -323 0 -255 -2 -303 -16 -322 -19
-28 -63 -29 -98 -1 -39 30 -84 28 -113 -6 -81 -93 126 -212 255 -146 51 26 88
68 107 120 12 35 15 99 15 346 0 291 -1 303 -21 329 -27 34 -77 36 -107 3z"/>
<path d="M4135 4283 c-28 -10 -65 -28 -82 -41 -43 -31 -83 -114 -83 -173 0
-61 11 -89 55 -138 29 -32 60 -49 165 -91 142 -57 180 -84 180 -127 -2 -105
-193 -130 -290 -38 -39 37 -76 48 -109 30 -53 -27 -56 -80 -6 -130 92 -92 260
-132 383 -91 182 61 231 280 90 400 -24 21 -87 54 -157 81 -146 59 -161 68
-161 103 0 81 116 103 228 45 76 -40 104 -41 131 -7 45 57 17 104 -88 153 -90
41 -183 50 -256 24z"/>
<path d="M837 2990 l-27 -21 0 -375 c0 -361 1 -375 20 -394 22 -22 60 -26 90
-10 29 15 40 65 40 175 l0 102 86 7 c135 10 217 57 267 151 31 57 30 173 0
231 -30 56 -79 103 -133 128 -37 17 -70 21 -180 24 -126 4 -137 2 -163 -18z
m281 -144 c63 -33 87 -97 58 -154 -24 -47 -56 -63 -140 -69 l-76 -6 0 122 0
121 65 0 c37 0 78 -6 93 -14z"/>
<path d="M1517 3003 c-44 -11 -47 -42 -47 -418 l0 -356 25 -24 c31 -32 74 -33
103 -2 21 22 22 33 22 175 l0 152 159 0 160 0 3 -156 c3 -150 4 -157 27 -175
32 -26 73 -24 99 4 22 23 22 27 22 394 l0 372 -26 20 c-30 24 -43 26 -77 10
-39 -18 -47 -50 -47 -189 l0 -130 -160 0 -160 0 0 144 c0 144 0 145 -26 165
-26 21 -41 23 -77 14z"/>
<path d="M2333 3000 c-12 -5 -26 -18 -32 -29 -7 -13 -11 -144 -11 -381 l0
-361 25 -24 c31 -32 74 -33 103 -2 20 21 22 34 22 144 l0 120 93 7 c145 10
221 57 270 166 29 63 28 152 -2 213 -30 62 -101 123 -164 142 -56 17 -267 20
-304 5z m272 -154 c41 -18 67 -55 68 -100 2 -79 -51 -120 -158 -120 l-70 -1
-3 118 -3 117 66 0 c36 0 81 -6 100 -14z"/>
<path d="M3537 1619 c-95 -22 -211 -108 -261 -193 -41 -70 -59 -150 -54 -235
7 -108 38 -179 108 -255 126 -135 310 -173 465 -97 109 54 154 132 105 181
-35 35 -70 30 -124 -16 -156 -134 -405 -4 -406 211 0 201 207 323 390 230 43
-22 59 -25 84 -18 39 11 63 55 50 92 -27 76 -224 131 -357 100z"/>
</g>
</svg>
